<mxfile host="app.diagrams.net" modified="2024-05-15T08:07:41.555Z" agent="Mozilla/5.0 (Windows NT 10.0; Win64; x64) AppleWebKit/537.36 (KHTML, like Gecko) Chrome/124.0.0.0 Safari/537.36" version="24.4.0" etag="-WB4sAh3bAfNEUqmNazO" type="github">
  <diagram name="第 1 页" id="bvI0bnbR4m2EuvqrLbbR">
    <mxGraphModel>
      <root>
        <mxCell id="0" />
        <mxCell id="1" parent="0" />
      </root>
    </mxGraphModel>
  </diagram>
</mxfile>
